<svg width="69" height="69" viewBox="0 0 69 69" fill="none" xmlns="http://www.w3.org/2000/svg">
<rect width="69" height="69" rx="2" fill="#403D3A"/>
<g clip-path="url(#clip0_1_190)">
<path d="M21.62 40.02C20.8922 40.02 20.1807 40.2358 19.5755 40.6402C18.9703 41.0446 18.4987 41.6193 18.2201 42.2917C17.9416 42.9642 17.8687 43.7041 18.0107 44.418C18.1527 45.1318 18.5032 45.7875 19.0179 46.3022C19.5325 46.8168 20.1882 47.1673 20.9021 47.3093C21.6159 47.4513 22.3558 47.3784 23.0283 47.0999C23.7007 46.8214 24.2754 46.3497 24.6798 45.7445C25.0842 45.1393 25.3 44.4279 25.3 43.7C25.3 42.724 24.9123 41.788 24.2222 41.0979C23.532 40.4077 22.596 40.02 21.62 40.02ZM21.62 45.54C21.2561 45.54 20.9003 45.4321 20.5978 45.2299C20.2952 45.0277 20.0593 44.7404 19.9201 44.4042C19.7808 44.0679 19.7444 43.698 19.8154 43.3411C19.8864 42.9841 20.0616 42.6563 20.3189 42.3989C20.5763 42.1416 20.9041 41.9664 21.261 41.8954C21.618 41.8244 21.9879 41.8608 22.3241 42.0001C22.6604 42.1393 22.9477 42.3752 23.1499 42.6778C23.3521 42.9804 23.46 43.3361 23.46 43.7C23.46 44.188 23.2661 44.656 22.9211 45.0011C22.576 45.3462 22.108 45.54 21.62 45.54Z" fill="#F2F2F2"/>
<path d="M51.06 47.38C51.7878 47.38 52.4993 47.1642 53.1045 46.7598C53.7097 46.3555 54.1814 45.7807 54.4599 45.1083C54.7384 44.4359 54.8113 43.6959 54.6693 42.9821C54.5273 42.2682 54.1768 41.6125 53.6622 41.0979C53.1475 40.5832 52.4918 40.2327 51.7779 40.0907C51.0641 39.9487 50.3242 40.0216 49.6517 40.3001C48.9793 40.5787 48.4046 41.0503 48.0002 41.6555C47.5958 42.2607 47.38 42.9722 47.38 43.7C47.38 44.676 47.7677 45.612 48.4579 46.3022C49.148 46.9923 50.084 47.38 51.06 47.38ZM51.06 41.86C51.4239 41.86 51.7797 41.9679 52.0823 42.1701C52.3848 42.3723 52.6207 42.6597 52.7599 42.9959C52.8992 43.3321 52.9356 43.7021 52.8647 44.059C52.7937 44.4159 52.6184 44.7438 52.3611 45.0011C52.1038 45.2584 51.7759 45.4337 51.419 45.5047C51.062 45.5757 50.6921 45.5392 50.3559 45.4C50.0197 45.2607 49.7323 45.0249 49.5301 44.7223C49.3279 44.4197 49.22 44.0639 49.22 43.7C49.22 43.212 49.4139 42.744 49.7589 42.3989C50.104 42.0539 50.572 41.86 51.06 41.86Z" fill="#F2F2F2"/>
<path d="M17.4313 22.6364C17.3231 22.5824 17.2054 22.5501 17.0848 22.5416C16.9643 22.5331 16.8432 22.5484 16.7285 22.5866C16.6139 22.6249 16.5079 22.6854 16.4166 22.7647C16.3253 22.8439 16.2506 22.9404 16.1966 23.0486L15.2766 24.8886C15.1675 25.107 15.1497 25.3597 15.227 25.5913C15.3043 25.8228 15.4704 26.0142 15.6888 26.1232C15.9072 26.2323 16.1599 26.2501 16.3915 26.1728C16.623 26.0955 16.8143 25.9294 16.9234 25.7111L17.8434 23.8711C17.8975 23.7629 17.9297 23.6452 17.9382 23.5246C17.9468 23.4041 17.9315 23.283 17.8932 23.1683C17.8549 23.0537 17.7944 22.9477 17.7151 22.8564C17.6359 22.7651 17.5394 22.6904 17.4313 22.6364Z" fill="#E59456"/>
<path d="M24.7913 22.6364C24.6831 22.5824 24.5654 22.5501 24.4448 22.5416C24.3243 22.5331 24.2032 22.5484 24.0885 22.5866C23.9739 22.6249 23.8679 22.6854 23.7766 22.7647C23.6853 22.8439 23.6106 22.9404 23.5566 23.0486L22.057 26.0496C21.9478 26.2679 21.9298 26.5206 22.0069 26.7521C22.0841 26.9837 22.25 27.1751 22.4683 27.2843C22.6865 27.3935 22.9392 27.4115 23.1707 27.3343C23.4023 27.2572 23.5937 27.0913 23.7029 26.873L25.208 23.8711C25.2619 23.7627 25.2939 23.6447 25.3021 23.5239C25.3103 23.4031 25.2946 23.2819 25.2559 23.1672C25.2172 23.0525 25.1562 22.9466 25.0765 22.8555C24.9967 22.7644 24.8998 22.69 24.7913 22.6364Z" fill="#E59456"/>
<path d="M32.1512 22.6364C32.0431 22.5824 31.9254 22.5501 31.8048 22.5416C31.6842 22.5331 31.5631 22.5484 31.4485 22.5866C31.3338 22.6249 31.2278 22.6854 31.1366 22.7647C31.0453 22.8439 30.9705 22.9404 30.9166 23.0486L28.6166 27.6486C28.5075 27.867 28.4897 28.1197 28.567 28.3513C28.6442 28.5828 28.8104 28.7742 29.0287 28.8832C29.2471 28.9923 29.4999 29.0101 29.7314 28.9328C29.963 28.8555 30.1543 28.6894 30.2634 28.4711L32.5634 23.8711C32.6174 23.7629 32.6497 23.6452 32.6582 23.5246C32.6667 23.4041 32.6514 23.283 32.6131 23.1683C32.5749 23.0537 32.5144 22.9477 32.4351 22.8564C32.3559 22.7651 32.2594 22.6904 32.1512 22.6364Z" fill="#E59456"/>
<path d="M39.5112 22.6364C39.4031 22.5824 39.2854 22.5501 39.1648 22.5416C39.0442 22.5331 38.9231 22.5484 38.8085 22.5866C38.6938 22.6249 38.5878 22.6854 38.4966 22.7647C38.4053 22.8439 38.3305 22.9404 38.2766 23.0486L35.0566 29.4886C34.9475 29.707 34.9297 29.9597 35.007 30.1913C35.0843 30.4228 35.2504 30.6142 35.4687 30.7232C35.6871 30.8323 35.9399 30.8501 36.1714 30.7728C36.403 30.6955 36.5943 30.5294 36.7034 30.3111L39.9234 23.8711C39.9774 23.7629 40.0097 23.6452 40.0182 23.5246C40.0267 23.4041 40.0114 23.283 39.9732 23.1683C39.9349 23.0537 39.8744 22.9477 39.7951 22.8564C39.7159 22.7651 39.6194 22.6904 39.5112 22.6364Z" fill="#E59456"/>
<path d="M60.2599 16.0999H44.6199C43.453 16.1008 42.3082 16.4188 41.3079 17.0199L39.329 18.2057C38.614 18.6347 37.7957 18.8609 36.9618 18.8599H12.3141C12.0212 18.8604 11.7327 18.9306 11.4723 19.0647C11.2118 19.1987 10.987 19.3928 10.8164 19.6308L7.24308 24.6329C7.07239 24.872 6.96144 25.1485 6.91952 25.4393C6.8776 25.7301 6.90593 26.0267 7.00212 26.3043C7.09832 26.5819 7.2596 26.8325 7.47246 27.035C7.68532 27.2375 7.94359 27.3861 8.22564 27.4683L17.0199 30.0066V35.7446C15.691 36.5137 14.5758 37.6033 13.7761 38.914C12.9764 40.2247 12.5176 41.7148 12.4416 43.2484C12.3657 44.7819 12.6749 46.31 13.3412 47.6934C14.0074 49.0767 15.0095 50.2712 16.2559 51.1679C17.5023 52.0645 18.9534 52.6348 20.4767 52.8266C22.0001 53.0185 23.5473 52.8259 24.9771 52.2663C26.4069 51.7067 27.6739 50.7979 28.6623 49.623C29.6508 48.4481 30.3293 47.0443 30.6359 45.5398H32.9175C33.0776 45.8184 33.308 46.05 33.5857 46.2114C33.8634 46.3729 34.1787 46.4585 34.4999 46.4598H38.1799C38.5015 46.4589 38.8171 46.3734 39.0952 46.2119C39.3732 46.0504 39.604 45.8186 39.7642 45.5398H42.0439C42.3392 47.0024 42.9857 48.3711 43.9278 49.5281C44.8698 50.6851 46.0792 51.5956 47.4515 52.1812C48.8238 52.7667 50.318 53.0097 51.8051 52.8892C53.2923 52.7687 54.7278 52.2883 55.9879 51.4894C57.248 50.6905 58.295 49.5972 59.0385 48.3036C59.7819 47.01 60.1996 45.555 60.2555 44.064C60.3114 42.573 60.0039 41.0908 59.3594 39.7452C58.7149 38.3995 57.7528 37.2308 56.556 36.3398H60.2599C60.7479 36.3398 61.2159 36.146 61.561 35.8009C61.9061 35.4559 62.0999 34.9878 62.0999 34.4998V32.6598C62.0999 32.1718 61.9061 31.7038 61.561 31.3588C61.2159 31.0137 60.7479 30.8199 60.2599 30.8199H56.5799V27.1399C56.5776 26.5711 56.3995 26.0169 56.0702 25.5531C55.7408 25.0894 55.2762 24.7387 54.7399 24.5491V21.6199H60.2599C60.7479 21.6199 61.2159 21.426 61.561 21.0809C61.9061 20.7359 62.0999 20.2679 62.0999 19.7799V17.9399C62.0999 17.4519 61.9061 16.9838 61.561 16.6388C61.2159 16.2937 60.7479 16.0999 60.2599 16.0999ZM21.6199 51.0598C20.1643 51.0598 18.7413 50.6282 17.5309 49.8194C16.3206 49.0107 15.3772 47.8612 14.8202 46.5164C14.2631 45.1715 14.1174 43.6917 14.4014 42.264C14.6853 40.8363 15.3863 39.5248 16.4156 38.4955C17.4449 37.4662 18.7564 36.7652 20.1841 36.4813C21.6118 36.1973 23.0916 36.343 24.4365 36.9001C25.7813 37.4571 26.9308 38.4005 27.7395 39.6108C28.5483 40.8212 28.9799 42.2442 28.9799 43.6998C28.9777 45.6512 28.2016 47.5219 26.8218 48.9017C25.442 50.2815 23.5712 51.0576 21.6199 51.0598ZM34.4999 44.6198V40.9398H38.1799V44.6198H34.4999ZM58.4199 43.6998C58.4199 45.1555 57.9883 46.5785 57.1795 47.7888C56.3708 48.9992 55.2213 49.9425 53.8765 50.4996C52.5316 51.0566 51.0518 51.2024 49.6241 50.9184C48.1964 50.6344 46.8849 49.9334 45.8556 48.9041C44.8263 47.8748 44.1253 46.5634 43.8413 45.1357C43.5574 43.708 43.7031 42.2282 44.2602 40.8833C44.8172 39.5384 45.7606 38.389 46.9709 37.5802C48.1813 36.7715 49.6043 36.3398 51.0599 36.3398C53.0112 36.342 54.882 37.1182 56.2618 38.498C57.6416 39.8777 58.4177 41.7485 58.4199 43.6998ZM60.2599 32.6598V34.4998H46.4599C46.312 34.4999 46.1663 34.4643 46.035 34.396C45.9038 34.3277 45.791 34.2288 45.7061 34.1077C45.6213 33.9865 45.5669 33.8467 45.5475 33.7C45.5282 33.5534 45.5445 33.4042 45.5951 33.2652L47.9365 26.8252C48.0011 26.6477 48.1188 26.4945 48.2735 26.3862C48.4282 26.2779 48.6125 26.2198 48.8013 26.2199H50.1399V29.8998C50.1399 30.6318 50.4307 31.3339 50.9483 31.8515C51.4659 32.3691 52.1679 32.6598 52.8999 32.6598H60.2599ZM53.8199 26.2199C54.0639 26.2199 54.2979 26.3168 54.4705 26.4893C54.643 26.6618 54.7399 26.8959 54.7399 27.1399V30.8199H52.8999C52.6559 30.8199 52.4219 30.7229 52.2494 30.5504C52.0769 30.3779 51.9799 30.1438 51.9799 29.8998V26.2199H53.8199ZM52.8999 24.3799H48.8032C48.237 24.3809 47.6848 24.5557 47.2212 24.8807C46.7575 25.2056 46.4048 25.665 46.2106 26.1969L43.8683 32.6368C43.7375 32.9929 43.682 33.3722 43.7053 33.7507C43.7287 34.1293 43.8303 34.4989 44.0039 34.8362C44.1774 35.1734 44.4191 35.471 44.7136 35.71C45.0081 35.949 45.349 36.1244 45.7147 36.2248C44.5234 37.0739 43.5521 38.1951 42.8816 39.4953C42.2111 40.7954 41.8609 42.237 41.8599 43.6998H40.0199V40.9398C40.0199 40.4518 39.8261 39.9838 39.481 39.6388C39.1359 39.2937 38.6679 39.0998 38.1799 39.0998H34.4999C34.0119 39.0998 33.5439 39.2937 33.1988 39.6388C32.8538 39.9838 32.6599 40.4518 32.6599 40.9398V43.6998H30.8199C30.8199 42.2554 30.4797 40.8312 29.8269 39.5427C29.1742 38.2541 28.2272 37.1374 27.0626 36.2828C25.898 35.4283 24.5486 34.86 23.1235 34.6239C21.6985 34.3878 20.2379 34.4906 18.8599 34.924V30.5374L37.2949 35.8568C37.9379 36.0424 38.6265 35.9879 39.2324 35.7035C39.8383 35.4192 40.3202 34.9244 40.5885 34.3112L45.9006 22.1719C45.9721 22.0079 46.09 21.8683 46.2397 21.7703C46.3893 21.6722 46.5644 21.6199 46.7433 21.6199H52.8999V24.3799ZM60.2599 19.7799H46.7433C46.2065 19.7801 45.6814 19.9369 45.2324 20.2311C44.7834 20.5252 44.4298 20.9439 44.2151 21.4359L38.903 33.5798C38.8135 33.784 38.6528 33.9487 38.4509 34.0433C38.249 34.1379 38.0197 34.1559 37.8055 34.0941L8.73992 25.7028L12.3141 20.6999H36.9618C38.1289 20.6995 39.2738 20.3815 40.2738 19.7799L42.2537 18.594C42.9686 18.1656 43.7865 17.9395 44.6199 17.9399H60.2599V19.7799Z" fill="#F2F2F2"/>
<path fill-rule="evenodd" clip-rule="evenodd" d="M60.2593 16.0999H44.6193C43.4523 16.1008 42.3075 16.4188 41.3073 17.0199L39.3283 18.2057C38.6133 18.6347 37.795 18.8609 36.9612 18.8599H12.3135C12.0206 18.8604 11.732 18.9306 11.4716 19.0647C11.2112 19.1987 10.9864 19.3928 10.8157 19.6308L7.24241 24.6329C7.07172 24.872 6.96077 25.1485 6.91885 25.4393C6.87693 25.7301 6.90525 26.0267 7.00145 26.3043C7.09765 26.5819 7.25893 26.8325 7.4718 27.035C7.68466 27.2375 7.94292 27.3861 8.22497 27.4683L17.0193 30.0066L18.8593 30.5374L37.2942 35.8569C37.9373 36.0424 38.6258 35.9879 39.2317 35.7036C39.8376 35.4192 40.3196 34.9244 40.5878 34.3113L45.8999 22.1719C45.9715 22.0079 46.0893 21.8683 46.239 21.7703C46.3887 21.6722 46.5637 21.6199 46.7426 21.6199H52.8993H54.7393H60.2593C60.7473 21.6199 61.2153 21.426 61.5603 21.0809C61.9054 20.7359 62.0993 20.2679 62.0993 19.7799V17.9399C62.0993 17.4519 61.9054 16.9838 61.5603 16.6388C61.2153 16.2937 60.7473 16.0999 60.2593 16.0999ZM46.7426 19.7799H60.2593V17.9399H44.6193C43.7858 17.9395 42.9679 18.1656 42.253 18.594L40.2732 19.7799C39.2732 20.3815 38.1282 20.6995 36.9612 20.6999H12.3135L8.73925 25.7028L37.8048 34.0941C38.019 34.156 38.2484 34.1379 38.4503 34.0433C38.6521 33.9487 38.8128 33.784 38.9024 33.5799L44.2145 21.4359C44.4292 20.9439 44.7827 20.5252 45.2317 20.2311C45.6808 19.9369 46.2058 19.7801 46.7426 19.7799Z" fill="#E59456"/>
</g>
<defs>
<clipPath id="clip0_1_190">
<rect width="55.2" height="55.2" fill="white" transform="translate(6.90002 6.8999)"/>
</clipPath>
</defs>
</svg>
