<svg width="34" height="34" viewBox="0 0 34 34" fill="none" xmlns="http://www.w3.org/2000/svg">
<g opacity="0.7">
<path d="M28.0512 7.54546H26.4546V6.36364C26.4546 5.73676 26.2055 5.13556 25.7623 4.69229C25.319 4.24903 24.7178 4 24.0909 4C23.464 4 22.8628 4.24903 22.4196 4.69229C21.9763 5.13556 21.7273 5.73676 21.7273 6.36364V7.54546H19.3636V6.36364C19.3636 5.73676 19.1146 5.13556 18.6714 4.69229C18.2281 4.24903 17.6269 4 17 4C16.3731 4 15.7719 4.24903 15.3287 4.69229C14.8854 5.13556 14.6364 5.73676 14.6364 6.36364V7.54546H12.2727V6.36364C12.2727 5.73676 12.0237 5.13556 11.5804 4.69229C11.1372 4.24903 10.536 4 9.9091 4C9.28222 4 8.68102 4.24903 8.23775 4.69229C7.79448 5.13556 7.54546 5.73676 7.54546 6.36364V7.54546H5.94882C5.43215 7.54608 4.93683 7.7516 4.57149 8.11694C4.20615 8.48228 4.00063 8.97761 4 9.49428V28.0488C4 28.5659 4.20525 29.0618 4.57065 29.4277C4.93606 29.7935 5.43174 29.9994 5.94882 30H28.0488C28.5659 30 29.0618 29.7948 29.4277 29.4294C29.7935 29.064 29.9994 28.5683 30 28.0512V9.49428C29.9994 8.97761 29.7939 8.48228 29.4285 8.11694C29.0632 7.7516 28.5679 7.54608 28.0512 7.54546ZM22.9091 6.36364C22.9091 6.0502 23.0336 5.7496 23.2553 5.52797C23.4769 5.30633 23.7775 5.18182 24.0909 5.18182C24.4044 5.18182 24.705 5.30633 24.9266 5.52797C25.1482 5.7496 25.2727 6.0502 25.2727 6.36364V7.54546H22.9091V6.36364ZM15.8182 6.36364C15.8182 6.0502 15.9427 5.7496 16.1643 5.52797C16.386 5.30633 16.6866 5.18182 17 5.18182C17.3134 5.18182 17.614 5.30633 17.8357 5.52797C18.0573 5.7496 18.1818 6.0502 18.1818 6.36364V7.54546H15.8182V6.36364ZM8.72728 6.36364C8.72728 6.0502 8.85179 5.7496 9.07342 5.52797C9.29506 5.30633 9.59566 5.18182 9.9091 5.18182C10.2225 5.18182 10.5231 5.30633 10.7448 5.52797C10.9664 5.7496 11.0909 6.0502 11.0909 6.36364V7.54546H8.72728V6.36364ZM28.8182 28.0512C28.8179 28.2545 28.737 28.4494 28.5932 28.5932C28.4494 28.737 28.2545 28.8179 28.0512 28.8182H5.94882C5.74549 28.8179 5.55059 28.737 5.40681 28.5932C5.26304 28.4494 5.18213 28.2545 5.18182 28.0512V9.49428C5.18213 9.29095 5.26304 9.09604 5.40681 8.95227C5.55059 8.8085 5.74549 8.72759 5.94882 8.72728H11.0909C11.0909 9.04071 10.9664 9.34131 10.7448 9.56295C10.5231 9.78458 10.2225 9.9091 9.9091 9.9091C9.75238 9.9091 9.60208 9.97135 9.49126 10.0822C9.38044 10.193 9.31819 10.3433 9.31819 10.5C9.31819 10.6567 9.38044 10.807 9.49126 10.9178C9.60208 11.0287 9.75238 11.0909 9.9091 11.0909C10.536 11.0909 11.1372 10.8419 11.5804 10.3986C12.0237 9.95535 12.2727 9.35415 12.2727 8.72728H18.1818C18.1818 9.04071 18.0573 9.34131 17.8357 9.56295C17.614 9.78458 17.3134 9.9091 17 9.9091C16.8433 9.9091 16.693 9.97135 16.5822 10.0822C16.4714 10.193 16.4091 10.3433 16.4091 10.5C16.4091 10.6567 16.4714 10.807 16.5822 10.9178C16.693 11.0287 16.8433 11.0909 17 11.0909C17.6269 11.0909 18.2281 10.8419 18.6714 10.3986C19.1146 9.95535 19.3636 9.35415 19.3636 8.72728H25.2727C25.2727 9.04071 25.1482 9.34131 24.9266 9.56295C24.705 9.78458 24.4044 9.9091 24.0909 9.9091C23.9342 9.9091 23.7839 9.97135 23.6731 10.0822C23.5623 10.193 23.5 10.3433 23.5 10.5C23.5 10.6567 23.5623 10.807 23.6731 10.9178C23.7839 11.0287 23.9342 11.0909 24.0909 11.0909C24.7178 11.0909 25.319 10.8419 25.7623 10.3986C26.2055 9.95535 26.4546 9.35415 26.4546 8.72728H28.0512C28.2545 8.72759 28.4494 8.8085 28.5932 8.95227C28.737 9.09604 28.8179 9.29095 28.8182 9.49428V28.0512Z" fill="#E59456"/>
<path d="M26.0788 12.2727H7.92129C7.50837 12.2733 7.11254 12.4376 6.82056 12.7296C6.52858 13.0216 6.36427 13.4174 6.36365 13.8303V26.0787C6.36427 26.4916 6.52858 26.8875 6.82056 27.1794C7.11254 27.4714 7.50837 27.6357 7.92129 27.6364H26.0788C26.4917 27.6357 26.8875 27.4714 27.1795 27.1794C27.4715 26.8875 27.6358 26.4916 27.6364 26.0787V13.8303C27.6358 13.4174 27.4715 13.0216 27.1795 12.7296C26.8875 12.4376 26.4917 12.2733 26.0788 12.2727ZM26.4546 26.0787C26.4543 26.1783 26.4146 26.2737 26.3442 26.3441C26.2737 26.4145 26.1783 26.4542 26.0788 26.4545H7.92129C7.82171 26.4542 7.7263 26.4145 7.65589 26.3441C7.58547 26.2737 7.54578 26.1783 7.54547 26.0787V13.8303C7.54578 13.7308 7.58547 13.6354 7.65589 13.5649C7.7263 13.4945 7.82171 13.4548 7.92129 13.4545H26.0788C26.1783 13.4548 26.2737 13.4945 26.3442 13.5649C26.4146 13.6354 26.4543 13.7308 26.4546 13.8303V26.0787Z" fill="#E59456"/>
<path d="M22.9091 20.7428C22.4396 20.745 21.99 20.9324 21.658 21.2644C21.326 21.5964 21.1385 22.046 21.1364 22.5155V22.9091C21.1364 23.3792 21.3231 23.8301 21.6556 24.1626C21.988 24.495 22.4389 24.6818 22.9091 24.6818C23.3792 24.6818 23.8301 24.495 24.1626 24.1626C24.495 23.8301 24.6818 23.3792 24.6818 22.9091V22.5155C24.6796 22.046 24.4922 21.5964 24.1602 21.2644C23.8282 20.9324 23.3786 20.745 22.9091 20.7428ZM23.5 22.9091C23.5 23.0658 23.4377 23.2161 23.3269 23.3269C23.2161 23.4377 23.0658 23.5 22.9091 23.5C22.7524 23.5 22.6021 23.4377 22.4912 23.3269C22.3804 23.2161 22.3182 23.0658 22.3182 22.9091V22.5155C22.3182 22.3588 22.3804 22.2085 22.4912 22.0977C22.6021 21.9869 22.7524 21.9246 22.9091 21.9246C23.0658 21.9246 23.2161 21.9869 23.3269 22.0977C23.4377 22.2085 23.5 22.3588 23.5 22.5155V22.9091Z" fill="#E59456"/>
<path d="M17 20.7428C16.5305 20.745 16.0809 20.9324 15.7489 21.2644C15.4169 21.5964 15.2295 22.046 15.2273 22.5155V22.9091C15.2273 23.3792 15.4141 23.8301 15.7465 24.1626C16.079 24.495 16.5299 24.6818 17 24.6818C17.4702 24.6818 17.9211 24.495 18.2535 24.1626C18.586 23.8301 18.7728 23.3792 18.7728 22.9091V22.5155C18.7706 22.046 18.5831 21.5964 18.2511 21.2644C17.9191 20.9324 17.4695 20.745 17 20.7428ZM17.5909 22.9091C17.5909 23.0658 17.5287 23.2161 17.4179 23.3269C17.307 23.4377 17.1567 23.5 17 23.5C16.8433 23.5 16.693 23.4377 16.5822 23.3269C16.4714 23.2161 16.4091 23.0658 16.4091 22.9091V22.5155C16.4091 22.3588 16.4714 22.2085 16.5822 22.0977C16.693 21.9869 16.8433 21.9246 17 21.9246C17.1567 21.9246 17.307 21.9869 17.4179 22.0977C17.5287 22.2085 17.5909 22.3588 17.5909 22.5155V22.9091Z" fill="#E59456"/>
<path d="M11.0908 20.7428C10.6214 20.745 10.1717 20.9324 9.83974 21.2644C9.50776 21.5964 9.32029 22.046 9.31812 22.5155V22.9091C9.31812 23.3792 9.50488 23.8301 9.83734 24.1626C10.1698 24.495 10.6207 24.6818 11.0908 24.6818C11.561 24.6818 12.0119 24.495 12.3444 24.1626C12.6768 23.8301 12.8636 23.3792 12.8636 22.9091V22.5155C12.8614 22.046 12.6739 21.5964 12.3419 21.2644C12.01 20.9324 11.5603 20.745 11.0908 20.7428ZM11.6818 22.9091C11.6818 23.0658 11.6195 23.2161 11.5087 23.3269C11.3979 23.4377 11.2476 23.5 11.0908 23.5C10.9341 23.5 10.7838 23.4377 10.673 23.3269C10.5622 23.2161 10.4999 23.0658 10.4999 22.9091V22.5155C10.4999 22.3588 10.5622 22.2085 10.673 22.0977C10.7838 21.9869 10.9341 21.9246 11.0908 21.9246C11.2476 21.9246 11.3979 21.9869 11.5087 22.0977C11.6195 22.2085 11.6818 22.3588 11.6818 22.5155V22.9091Z" fill="#E59456"/>
<path d="M22.9091 15.2272C22.4396 15.2294 21.99 15.4169 21.658 15.7489C21.326 16.0808 21.1385 16.5305 21.1364 17V17.3935C21.1364 17.8637 21.3231 18.3146 21.6556 18.647C21.988 18.9795 22.4389 19.1662 22.9091 19.1662C23.3792 19.1662 23.8301 18.9795 24.1626 18.647C24.495 18.3146 24.6818 17.8637 24.6818 17.3935V17C24.6796 16.5305 24.4922 16.0808 24.1602 15.7489C23.8282 15.4169 23.3786 15.2294 22.9091 15.2272ZM23.5 17.3935C23.5 17.5502 23.4377 17.7005 23.3269 17.8113C23.2161 17.9222 23.0658 17.9844 22.9091 17.9844C22.7524 17.9844 22.6021 17.9222 22.4912 17.8113C22.3804 17.7005 22.3182 17.5502 22.3182 17.3935V17C22.3182 16.8432 22.3804 16.6929 22.4912 16.5821C22.6021 16.4713 22.7524 16.4091 22.9091 16.4091C23.0658 16.4091 23.2161 16.4713 23.3269 16.5821C23.4377 16.6929 23.5 16.8432 23.5 17V17.3935Z" fill="#E59456"/>
<path d="M17 15.2272C16.5305 15.2294 16.0809 15.4169 15.7489 15.7489C15.4169 16.0808 15.2295 16.5305 15.2273 17V17.3935C15.2273 17.8637 15.4141 18.3146 15.7465 18.647C16.079 18.9795 16.5299 19.1662 17 19.1662C17.4702 19.1662 17.9211 18.9795 18.2535 18.647C18.586 18.3146 18.7728 17.8637 18.7728 17.3935V17C18.7706 16.5305 18.5831 16.0808 18.2511 15.7489C17.9191 15.4169 17.4695 15.2294 17 15.2272ZM17.5909 17.3935C17.5909 17.5502 17.5287 17.7005 17.4179 17.8113C17.307 17.9222 17.1567 17.9844 17 17.9844C16.8433 17.9844 16.693 17.9222 16.5822 17.8113C16.4714 17.7005 16.4091 17.5502 16.4091 17.3935V17C16.4091 16.8432 16.4714 16.6929 16.5822 16.5821C16.693 16.4713 16.8433 16.4091 17 16.4091C17.1567 16.4091 17.307 16.4713 17.4179 16.5821C17.5287 16.6929 17.5909 16.8432 17.5909 17V17.3935Z" fill="#E59456"/>
<path d="M11.0908 15.2272C10.6214 15.2294 10.1717 15.4169 9.83974 15.7489C9.50776 16.0808 9.32029 16.5305 9.31812 17V17.3935C9.31812 17.8637 9.50488 18.3146 9.83734 18.647C10.1698 18.9795 10.6207 19.1662 11.0908 19.1662C11.561 19.1662 12.0119 18.9795 12.3444 18.647C12.6768 18.3146 12.8636 17.8637 12.8636 17.3935V17C12.8614 16.5305 12.6739 16.0808 12.3419 15.7489C12.01 15.4169 11.5603 15.2294 11.0908 15.2272ZM11.6818 17.3935C11.6818 17.5502 11.6195 17.7005 11.5087 17.8113C11.3979 17.9222 11.2476 17.9844 11.0908 17.9844C10.9341 17.9844 10.7838 17.9222 10.673 17.8113C10.5622 17.7005 10.4999 17.5502 10.4999 17.3935V17C10.4999 16.8432 10.5622 16.6929 10.673 16.5821C10.7838 16.4713 10.9341 16.4091 11.0908 16.4091C11.2476 16.4091 11.3979 16.4713 11.5087 16.5821C11.6195 16.6929 11.6818 16.8432 11.6818 17V17.3935Z" fill="#E59456"/>
</g>
</svg>
