<svg width="16" height="16" viewBox="0 0 16 16" fill="none" xmlns="http://www.w3.org/2000/svg">
<g clip-path="url(#clip0_1_464)">
<path d="M10.2079 16.0001C10.1683 16.0001 10.1285 15.9999 10.0885 15.9995C8.85548 15.9886 7.59081 15.6215 6.32964 14.9083C5.33936 14.3482 4.34393 13.571 3.37106 12.5981C1.15421 10.3813 0.0202187 8.13169 0.000625666 5.91193C-0.0118114 4.50517 0.148058 2.45856 1.67319 0.933394C2.26913 0.337448 3.01261 0.006116 3.76661 0.000459957L3.78667 0.000366211H3.79189C4.70448 0.000366211 5.55186 0.499691 6.0039 1.30447L6.51351 2.21172L6.5222 2.22981C6.78125 2.76948 6.90806 3.184 6.93337 3.57386C6.96959 4.13156 6.78953 4.61416 6.39823 5.00837L4.98213 6.47622C5.19262 7.05845 5.73126 8.31381 6.75481 9.33958C7.76806 10.3506 8.98964 10.8664 9.5683 11.0693L10.9879 9.59595C11.3856 9.19893 11.8576 9.00944 12.3898 9.03259C12.7988 9.05044 13.2299 9.18731 13.7877 9.47636L13.8062 9.48636L14.696 9.98612C15.5022 10.439 16.0019 11.2888 16 12.2038L15.9999 12.2258C15.9943 12.9774 15.663 13.7209 15.067 14.3168C14.4047 14.9792 13.5694 15.4509 12.5845 15.7188C11.8897 15.9078 11.1111 16.0001 10.2079 16.0001ZM3.79145 1.25032C3.79058 1.25032 3.78973 1.25032 3.78886 1.25032L3.77574 1.25038C3.35234 1.25357 2.91942 1.45487 2.55706 1.81724C1.36417 3.01013 1.24008 4.71916 1.25052 5.90087C1.26714 7.78139 2.27795 9.73729 4.25487 11.7142C6.25236 13.7117 8.21879 14.733 10.0995 14.7496C11.277 14.76 12.9813 14.6348 14.1831 13.4329C14.5455 13.0705 14.7468 12.6376 14.75 12.214L14.7501 12.1989C14.751 11.7385 14.4957 11.3073 14.0838 11.0759L13.2034 10.5814C12.3354 10.1334 12.0861 10.2672 11.8748 10.4766L9.94929 12.4753L9.59833 12.3874C9.5133 12.3661 7.4976 11.8469 5.87141 10.2238L5.87056 10.223C4.25134 8.60061 3.69077 6.56078 3.66768 6.47472L3.57615 6.13333L5.50939 4.12956C5.69207 3.9465 5.8341 3.69192 5.40383 2.78845L4.91413 1.91661C4.68311 1.50547 4.25312 1.25032 3.79145 1.25032ZM13.8034 2.197C12.3869 0.780494 10.5035 0.00039746 8.50028 0.00039746V1.25035C11.9464 1.25035 14.75 4.054 14.75 7.50012H16C16 5.49685 15.2199 3.61348 13.8034 2.197ZM8.50028 5.00018V6.25013C9.1895 6.25013 9.75023 6.81086 9.75023 7.50009H11.0002C11.0002 6.12164 9.87873 5.00018 8.50028 5.00018ZM8.50028 2.50027V3.75023C10.568 3.75023 12.2501 5.43242 12.2501 7.50009H13.5001C13.5001 4.74319 11.2572 2.50027 8.50028 2.50027Z" fill="#E59456"/>
</g>
<defs>
<clipPath id="clip0_1_464">
<rect width="16" height="16" fill="white"/>
</clipPath>
</defs>
</svg>
