<svg width="20" height="20" viewBox="0 0 20 20" fill="none" xmlns="http://www.w3.org/2000/svg">
<g opacity="0.9">
<path d="M11.2798 6.63264C10.947 6.30276 10.7637 5.86378 10.7637 5.39663C10.7637 4.92936 10.947 4.4905 11.2798 4.16062L12.7977 2.65609C13.026 2.42996 13.3943 2.43155 13.6206 2.65984C13.8467 2.88802 13.8451 3.25642 13.6168 3.48256L12.3021 4.78573H14.3114C16.0744 4.78573 17.5099 6.22003 17.5113 7.98297L17.5127 9.58511C17.5129 9.90647 17.2527 10.1671 16.9313 10.1674H16.9309C16.6097 10.1674 16.3493 9.90726 16.3491 9.58613L16.3477 7.98399C16.3468 6.86207 15.4333 5.94935 14.3114 5.94935H12.2433L13.6168 7.31059C13.8451 7.53683 13.8467 7.90513 13.6206 8.13342C13.5068 8.24819 13.3571 8.30569 13.2073 8.30569C13.0592 8.30569 12.9111 8.24955 12.7977 8.13706L11.2798 6.63264Z" fill="#4D4A46"/>
<path d="M12.0152 17C11.9802 17 11.9451 16.9999 11.9098 16.9996C10.8208 16.9899 9.70392 16.6657 8.5901 16.0358C7.71553 15.5412 6.8364 14.8547 5.9772 13.9955C4.01935 12.0376 3.01786 10.0508 3.00055 8.09037C2.98957 6.84795 3.13076 5.04041 4.4777 3.69342C5.00402 3.16709 5.66062 2.87446 6.32653 2.86947L6.34425 2.86938H6.34886C7.15482 2.86938 7.90319 3.31038 8.30242 4.02115L8.75249 4.82241L8.76016 4.83839C8.98895 5.31502 9.10094 5.68111 9.12329 6.02543C9.15528 6.51798 8.99626 6.94421 8.65068 7.29236L7.40003 8.58874C7.58593 9.10296 8.06163 10.2117 8.9656 11.1176C9.86046 12.0105 10.9393 12.466 11.4504 12.6452L12.7041 11.344C13.0554 10.9934 13.4722 10.826 13.9422 10.8465C14.3034 10.8622 14.6842 10.9831 15.1768 11.2384L15.1931 11.2472L15.9789 11.6886C16.691 12.0886 17.1323 12.8391 17.1306 13.6472L17.1305 13.6666C17.1256 14.3305 16.833 14.9871 16.3066 15.5134C15.7217 16.0984 14.984 16.515 14.1142 16.7516C13.5005 16.9186 12.8129 17 12.0152 17ZM6.34847 3.97332H6.34618L6.33459 3.97338C5.96067 3.97619 5.57833 4.15398 5.2583 4.47401C4.20478 5.52755 4.09519 7.03694 4.10441 8.0806C4.11909 9.74145 5.0118 11.4689 6.75775 13.2148C8.52185 14.979 10.2585 15.881 11.9195 15.8956C12.9594 15.9049 14.4646 15.7943 15.526 14.7328C15.8461 14.4127 16.0239 14.0304 16.0267 13.6562L16.0267 13.6429C16.0276 13.2363 15.8021 12.8555 15.4383 12.6511L14.6608 12.2143C13.8942 11.8187 13.674 11.9369 13.4874 12.1218L11.7868 13.8871L11.4769 13.8094C11.4018 13.7905 9.6216 13.332 8.18541 11.8986L8.18466 11.8978C6.75463 10.465 6.25955 8.66343 6.23916 8.58742L6.15832 8.28591L7.86569 6.51621C8.02703 6.35454 8.15246 6.1297 7.77246 5.33177L7.33998 4.56178C7.13595 4.19866 6.7562 3.97332 6.34847 3.97332Z" fill="#4D4A46"/>
</g>
</svg>
