<svg width="18" height="18" viewBox="0 0 18 18" fill="none" xmlns="http://www.w3.org/2000/svg">
<g opacity="0.7">
<path d="M16.6073 13.989C16.7788 13.8166 16.875 13.5834 16.875 13.3403C16.875 13.0972 16.7788 12.8639 16.6073 12.6916L14.2585 10.3431C14.0861 10.1716 13.8527 10.0753 13.6095 10.0753C13.3663 10.0753 13.133 10.1716 12.9606 10.3431L12.3223 10.9817C12.1104 11.1955 11.8351 11.335 11.5374 11.3796C11.2397 11.4242 10.9356 11.3714 10.6703 11.2292C9.00932 10.3494 7.65083 8.99095 6.77087 7.32996C6.62857 7.06462 6.57574 6.76042 6.62025 6.46264C6.66476 6.16486 6.80422 5.88941 7.01789 5.67728L7.65737 5.03884C7.82882 4.86642 7.92506 4.63314 7.92506 4.38997C7.92506 4.14681 7.82882 3.91352 7.65737 3.7411L5.30855 1.39289C5.13614 1.22132 4.90281 1.125 4.65958 1.125C4.41635 1.125 4.18302 1.22132 4.01061 1.39289C3.91354 1.48969 3.79073 1.60664 3.6594 1.73039L3.64898 1.74024C3.32235 2.04898 2.91946 2.4298 2.75556 2.67015C1.88313 3.94698 2.30151 5.6552 2.80412 6.86355C3.46807 8.45623 4.69171 10.1917 6.25092 11.7499C7.80872 13.3079 9.54351 14.5318 11.137 15.1958C12.345 15.6991 14.0524 16.1165 15.3291 15.2442C15.5719 15.0784 15.9588 14.6696 16.2686 14.3407L16.2906 14.3175C16.4067 14.1951 16.5157 14.08 16.6073 13.989Z" fill="#E59456"/>
</g>
</svg>
