<svg width="18" height="18" viewBox="0 0 18 18" fill="none" xmlns="http://www.w3.org/2000/svg">
<g opacity="0.7">
<path d="M11.3691 9.07454L16.2728 12.1745V5.84363L11.3691 9.07454Z" fill="#E59456"/>
<path d="M1.72729 5.84363V12.1745L6.63093 9.07454L1.72729 5.84363Z" fill="#E59456"/>
<path d="M15.3636 4H2.63633C2.1827 4 1.8227 4.33818 1.75452 4.77364L8.99997 9.54727L16.2454 4.77364C16.1772 4.33818 15.8172 4 15.3636 4Z" fill="#E59456"/>
<path d="M10.5363 9.62353L9.24998 10.4708C9.17362 10.5208 9.08726 10.5453 8.99998 10.5453C8.91271 10.5453 8.82635 10.5208 8.74998 10.4708L7.46362 9.62262L1.75635 13.2326C1.82635 13.6644 2.18453 13.9999 2.63635 13.9999H15.3636C15.8154 13.9999 16.1736 13.6644 16.2436 13.2326L10.5363 9.62353Z" fill="#E59456"/>
</g>
</svg>
