<svg width="18" height="18" viewBox="0 0 18 18" fill="none" xmlns="http://www.w3.org/2000/svg">
<g opacity="0.7">
<path d="M9 1C5.691 1 3 3.691 3 7C3 11.159 8.416 16.623 8.646 16.854C8.744 16.951 8.872 17 9 17C9.128 17 9.256 16.951 9.354 16.854C9.584 16.623 15 11.159 15 7C15 3.691 12.309 1 9 1ZM9 15.777C7.806 14.499 4 10.177 4 7C4 4.243 6.243 2 9 2C11.757 2 14 4.243 14 7C14 10.174 10.194 14.499 9 15.777Z" fill="#E59456"/>
<path d="M9 15.777C7.806 14.499 4 10.177 4 7C4 4.243 6.243 2 9 2C11.757 2 14 4.243 14 7C14 10.174 10.194 14.499 9 15.777Z" fill="#E59456"/>
<path d="M9 4C7.346 4 6 5.346 6 7C6 8.654 7.346 10 9 10C10.654 10 12 8.654 12 7C12 5.346 10.654 4 9 4ZM9 9C7.897 9 7 8.103 7 7C7 5.897 7.897 5 9 5C10.103 5 11 5.897 11 7C11 8.103 10.103 9 9 9Z" fill="#FCFCFC"/>
<path d="M9 9C7.897 9 7 8.103 7 7C7 5.897 7.897 5 9 5C10.103 5 11 5.897 11 7C11 8.103 10.103 9 9 9Z" fill="#FCFCFC"/>
</g>
</svg>
