<svg width="16" height="16" viewBox="0 0 16 16" fill="none" xmlns="http://www.w3.org/2000/svg">
<g clip-path="url(#clip0_1_148)">
<path d="M10.2079 16.0002C10.1683 16.0002 10.1285 16 10.0885 15.9996C8.85548 15.9887 7.59081 15.6216 6.32964 14.9084C5.33936 14.3484 4.34393 13.5711 3.37106 12.5982C1.15421 10.3814 0.0202187 8.13181 0.000625666 5.91205C-0.0118114 4.50529 0.148058 2.45868 1.67319 0.933516C2.26913 0.33757 3.01261 0.00623807 3.76661 0.000582028L3.78667 0.000488281H3.79189C4.70448 0.000488281 5.55186 0.499813 6.0039 1.3046L6.51351 2.21184L6.5222 2.22994C6.78125 2.7696 6.90806 3.18412 6.93337 3.57398C6.96959 4.13168 6.78953 4.61429 6.39823 5.00849L4.98213 6.47634C5.19262 7.05857 5.73126 8.31393 6.75481 9.3397C7.76806 10.3507 8.98964 10.8665 9.5683 11.0694L10.9879 9.59607C11.3856 9.19905 11.8576 9.00956 12.3898 9.03272C12.7988 9.05056 13.2299 9.18743 13.7877 9.47648L13.8062 9.48648L14.696 9.98624C15.5022 10.4392 16.0019 11.2889 16 12.2039L15.9999 12.2259C15.9943 12.9775 15.663 13.721 15.067 14.3169C14.4047 14.9793 13.5694 15.451 12.5845 15.7189C11.8897 15.908 11.1111 16.0002 10.2079 16.0002ZM3.79145 1.25044C3.79058 1.25044 3.78973 1.25044 3.78886 1.25044L3.77574 1.2505C3.35234 1.25369 2.91942 1.455 2.55706 1.81736C1.36417 3.01025 1.24008 4.71928 1.25052 5.90099C1.26714 7.78151 2.27795 9.73741 4.25487 11.7143C6.25236 13.7119 8.21879 14.7331 10.0995 14.7497C11.277 14.7602 12.9813 14.6349 14.1831 13.433C14.5455 13.0707 14.7468 12.6378 14.75 12.2141L14.7501 12.199C14.751 11.7386 14.4957 11.3074 14.0838 11.076L13.2034 10.5815C12.3354 10.1335 12.0861 10.2674 11.8748 10.4768L9.94929 12.4755L9.59833 12.3875C9.5133 12.3662 7.4976 11.847 5.87141 10.224L5.87056 10.2231C4.25134 8.60073 3.69077 6.5609 3.66768 6.47484L3.57615 6.13345L5.50939 4.12968C5.69207 3.94662 5.8341 3.69204 5.40383 2.78857L4.91413 1.91673C4.68311 1.50559 4.25312 1.25044 3.79145 1.25044ZM13.8034 2.19713C12.3869 0.780616 10.5035 0.00051953 8.50028 0.00051953V1.25047C11.9464 1.25047 14.75 4.05412 14.75 7.50024H16C16 5.49697 15.2199 3.6136 13.8034 2.19713ZM8.50028 5.0003V6.25026C9.1895 6.25026 9.75023 6.81099 9.75023 7.50021H11.0002C11.0002 6.12176 9.87873 5.0003 8.50028 5.0003ZM8.50028 2.5004V3.75035C10.568 3.75035 12.2501 5.43254 12.2501 7.50021H13.5001C13.5001 4.74331 11.2572 2.5004 8.50028 2.5004Z" fill="#E59456"/>
</g>
<defs>
<clipPath id="clip0_1_148">
<rect width="16" height="16" fill="white"/>
</clipPath>
</defs>
</svg>
