<svg width="69" height="69" viewBox="0 0 69 69" fill="none" xmlns="http://www.w3.org/2000/svg">
<rect width="69" height="69" rx="2" fill="#403D3A"/>
<g clip-path="url(#clip0_1_174)">
<path d="M37.6419 25.1583C38.6778 23.2138 38.1951 20.8083 36.4892 19.4141C34.7833 18.0199 32.3299 18.0257 30.6306 19.4279C28.9313 20.8302 28.4599 23.238 29.505 25.1775C30.5501 27.117 32.8203 28.0475 34.926 27.3994C36.0943 27.045 37.0722 26.238 37.6419 25.1583ZM36.0162 24.2962C35.3986 25.4591 34.0455 26.0237 32.7845 25.6448C31.5235 25.2659 30.7058 24.049 30.8313 22.7383C30.9569 21.4276 31.9908 20.3881 33.3008 20.2555C34.6108 20.1229 35.832 20.9342 36.2177 22.1931C36.4338 22.893 36.3612 23.6501 36.0162 24.2962Z" fill="#E59456"/>
<path d="M26.059 21.9042C24.4157 21.0319 22.4088 21.2353 20.974 22.4196C19.5392 23.6039 18.959 25.5359 19.504 27.3147C20.1139 29.3054 21.9849 30.6383 24.0656 30.5643C26.1463 30.4904 27.918 29.0281 28.385 26.9991C28.852 24.9701 27.898 22.8804 26.059 21.9042ZM26.3405 27.2604C25.7546 28.3632 24.5013 28.9353 23.2843 28.6553C22.0673 28.3753 21.19 27.3131 21.1449 26.0651C21.0999 24.8172 21.8984 23.6944 23.092 23.3274C23.3553 23.2469 23.629 23.2057 23.9044 23.2051C24.8726 23.2061 25.7696 23.7144 26.2679 24.5446C26.7663 25.3748 26.7931 26.4054 26.3387 27.2604H26.3405Z" fill="#E59456"/>
<path d="M16.3834 24.8693C14.445 23.8403 12.0497 24.3239 10.6623 26.0242C9.27494 27.7246 9.28192 30.1683 10.679 31.8607C12.0761 33.5531 14.4741 34.023 16.4066 32.9829C18.339 31.9428 19.2676 29.6825 18.6245 27.5843C18.2702 26.4162 17.4632 25.4385 16.3834 24.8693ZM16.6649 30.2256C16.0479 31.3889 14.695 31.9542 13.4337 31.5759C12.1725 31.1976 11.3541 29.981 11.4791 28.6702C11.6042 27.3593 12.6379 26.3194 13.9479 26.1864C15.258 26.0534 16.4795 26.8644 16.8655 28.1234C17.0821 28.8228 17.0099 29.5798 16.6649 30.2256Z" fill="#E59456"/>
<path fill-rule="evenodd" clip-rule="evenodd" d="M7.64616 37.8633C7.96074 38.0975 8.34234 38.2243 8.73452 38.2249C8.91914 38.2249 9.10271 38.1973 9.27916 38.143L35.7338 30.0341C39.0741 29.0009 41.2265 25.7603 40.8834 22.2807C40.5404 18.8011 37.7966 16.0431 34.3188 15.6821L31.3389 16.0415L29.234 16.638L16.1 20.6602L10.8183 22.2831L8.20644 23.0835C7.43006 23.315 6.89847 24.0297 6.90004 24.8398V36.3831C6.89728 36.9675 7.1747 37.5179 7.64616 37.8633ZM31.9636 17.7245L8.74004 24.8398V36.3831L35.1965 28.2751C37.3282 27.6192 38.8558 25.7449 39.0681 23.5247C39.2805 21.3045 38.1358 19.1746 36.1671 18.1266C34.8757 17.4369 33.3623 17.2921 31.9636 17.7245Z" fill="#E59456"/>
<path d="M55.1908 39.3243L53.8964 36.7345C53.8113 36.5646 53.745 36.386 53.6986 36.2018L53.3849 34.9469C52.9908 33.3645 51.7603 32.1259 50.1805 31.7214L50.1502 31.714C48.852 31.3875 47.4758 31.6651 46.4058 32.4693L45.4784 33.1658C44.3614 34.0071 43.7031 35.3232 43.7 36.7216V37.5652C43.6976 38.479 43.2184 39.3252 42.436 39.7971L40.3025 41.0778C39.6769 41.4531 39.1534 41.9767 38.778 42.6022L37.306 45.0513C36.9134 45.7035 36.2548 46.1511 35.5037 46.2758L32.4944 46.7781C31.746 46.9028 31.042 47.217 30.4493 47.6907L27.1695 50.3146C26.6692 50.7172 26.2613 51.2227 25.9735 51.7967L25.3295 53.0847C24.8949 53.9593 24.1287 54.6238 23.2015 54.9302L22.1785 55.2715C21.5379 55.4866 21.1473 56.1338 21.2555 56.8008C21.3637 57.4677 21.9389 57.9582 22.6145 57.9598H60.4358C60.9141 57.9599 61.3585 57.7123 61.61 57.3054C61.8615 56.8985 61.8844 56.3903 61.6704 55.9625L59.616 51.8528C59.4362 51.4921 59.3418 51.0948 59.34 50.6918V49.3026C59.3429 48.1235 58.8742 46.9923 58.0382 46.1608L56.4227 44.5443C55.9328 44.0576 55.6581 43.395 55.66 42.7043V41.3078C55.6586 40.6193 55.498 39.9404 55.1908 39.3243ZM56.7374 47.4589C57.2273 47.9456 57.502 48.6083 57.5 49.2989V50.6918C57.5009 51.3815 57.6615 52.0617 57.9692 52.679L59.6924 56.1198H52.4722L51.842 55.1731C51.3321 54.4108 51.06 53.5142 51.06 52.5971C51.0606 51.7707 50.9029 50.9519 50.5954 50.1849L49.1547 46.5812C49.0324 46.2759 48.7566 46.0589 48.431 46.0122C48.1054 45.9654 47.7796 46.0958 47.5763 46.3544C47.373 46.613 47.3231 46.9603 47.4453 47.2657L48.887 50.8693C49.1071 51.4175 49.2201 52.0027 49.22 52.5934C49.2206 53.8457 49.585 55.0708 50.2688 56.1198H24.9688C25.8287 55.5832 26.5233 54.819 26.9753 53.9118L27.6193 52.6238C27.7882 52.2875 28.0273 51.9913 28.3204 51.7553L31.5984 49.1278C31.945 48.8506 32.3567 48.6663 32.7944 48.5923L35.8037 48.0909C37.0882 47.8797 38.2153 47.1152 38.8866 45.9998L40.3586 43.5507C40.5787 43.1843 40.8855 42.8776 41.2519 42.6574L43.3854 41.3768C44.72 40.5698 45.5368 39.1249 45.54 37.5652V36.7216C45.542 35.9025 45.9275 35.1317 46.5815 34.6387L47.5107 33.9423C48.1306 33.475 48.9274 33.3102 49.6819 33.4933L49.7058 33.4997C50.6391 33.7323 51.368 34.4608 51.601 35.394L51.9138 36.6461C51.9927 36.961 52.1056 37.2664 52.2505 37.5569L53.544 40.1467C53.7239 40.5075 53.8183 40.9047 53.82 41.3078V42.697C53.8171 43.876 54.2859 45.0073 55.1218 45.8388L56.7374 47.4589Z" fill="#F2F2F2"/>
<path d="M46.057 28.5198H46.46C47.9843 28.5198 49.22 27.2841 49.22 25.7598V25.3568C49.2202 24.5068 48.8286 23.704 48.1586 23.1808C47.4886 22.6577 46.6149 22.4724 45.7902 22.6787L45.4673 22.7597C44.4789 23.007 43.7072 23.7787 43.4599 24.7671L43.3789 25.09C43.1726 25.9147 43.3579 26.7884 43.881 27.4584C44.4042 28.1284 45.207 28.52 46.057 28.5198ZM45.1637 25.5372L45.2447 25.2142C45.327 24.8844 45.5846 24.6268 45.9144 24.5445L46.2373 24.4635C46.3108 24.4453 46.3862 24.436 46.4618 24.4359C46.9699 24.4359 47.3818 24.8478 47.3818 25.3559V25.7598C47.3818 26.2679 46.9699 26.6798 46.4618 26.6798H46.0589C45.7755 26.68 45.5079 26.5496 45.3334 26.3264C45.1589 26.1032 45.097 25.8121 45.1655 25.5372H45.1637Z" fill="#F2F2F2"/>
<path d="M41.86 12.8799C41.2935 12.88 40.7585 13.141 40.4099 13.5876C40.0613 14.0342 39.9378 14.6165 40.0752 15.1661L40.5352 17.0061C40.7399 17.8251 41.4758 18.3998 42.32 18.3999H43.792C44.4891 18.4036 45.1278 18.0113 45.4397 17.3879L46.3597 15.5479C46.6475 14.9768 46.6181 14.2972 46.2821 13.753C45.946 13.2089 45.3515 12.8783 44.712 12.8799H41.86ZM43.792 16.5599H42.32L41.86 14.7199H44.712L43.792 16.5599Z" fill="#F2F2F2"/>
<path d="M44.1738 45.2116C43.7384 44.95 43.1733 45.0908 42.9116 45.5262L41.492 47.8989C40.826 49.0024 39.6318 49.6778 38.3428 49.68C37.488 49.6812 36.6451 49.8802 35.88 50.2615L33.1688 51.6166C32.714 51.8437 32.5295 52.3965 32.7566 52.8513C32.9837 53.306 33.5365 53.4905 33.9913 53.2634L36.708 51.9073C37.2159 51.6541 37.7754 51.5216 38.3428 51.52C40.2758 51.5144 42.0658 50.501 43.0652 48.8465L44.4884 46.4738C44.75 46.0384 44.6092 45.4733 44.1738 45.2116Z" fill="#F2F2F2"/>
</g>
<defs>
<clipPath id="clip0_1_174">
<rect x="6.90002" y="6.8999" width="55.2" height="55.2" rx="2" fill="white"/>
</clipPath>
</defs>
</svg>
