<svg width="40" height="40" viewBox="0 0 40 40" fill="none" xmlns="http://www.w3.org/2000/svg">
<rect width="40" height="40" rx="2" fill="#E59456"/>
<g clip-path="url(#clip0_1_4098)">
<path d="M21.6306 15.5662C21.1836 15.1232 20.9375 14.5338 20.9375 13.9065C20.9375 13.2791 21.1836 12.6898 21.6306 12.2468L23.6688 10.2266C23.9754 9.92291 24.4699 9.92505 24.7737 10.2316C25.0773 10.538 25.0752 11.0327 24.7687 11.3363L23.0032 13.0862H25.7013C28.0687 13.0862 29.9961 15.0121 29.9981 17.3794L30 19.5307C30.0003 19.9622 29.6508 20.3123 29.2193 20.3126H29.2187C28.7875 20.3126 28.4378 19.9633 28.4375 19.5321L28.4356 17.3808C28.4344 15.8743 27.2078 14.6487 25.7013 14.6487H22.9243L24.7687 16.4765C25.0752 16.7803 25.0773 17.2749 24.7737 17.5814C24.621 17.7355 24.4198 17.8127 24.2187 17.8127C24.0199 17.8127 23.8211 17.7374 23.6688 17.5863L21.6306 15.5662Z" fill="white"/>
<path d="M22.6184 29.4873C22.5714 29.4873 22.5243 29.4871 22.4768 29.4867C21.0146 29.4737 19.5148 29.0383 18.0192 28.1925C16.8449 27.5284 15.6644 26.6066 14.5107 25.4528C11.8817 22.8239 10.5369 20.156 10.5137 17.5236C10.4989 15.8553 10.6885 13.4282 12.4972 11.6194C13.2039 10.9127 14.0856 10.5198 14.9797 10.5131L15.0035 10.5129H15.0097C16.092 10.5129 17.0969 11.1051 17.6329 12.0595L18.2373 13.1354L18.2476 13.1569C18.5548 13.7969 18.7052 14.2885 18.7352 14.7508C18.7781 15.4122 18.5646 15.9845 18.1006 16.452L16.4212 18.1928C16.6708 18.8833 17.3096 20.372 18.5234 21.5885C19.725 22.7875 21.1737 23.3992 21.8599 23.6398L23.5434 21.8925C24.0151 21.4217 24.5748 21.197 25.206 21.2244C25.6909 21.2456 26.2022 21.4079 26.8637 21.7507L26.8856 21.7626L27.9408 22.3553C28.897 22.8924 29.4896 23.9001 29.4873 24.9852L29.4871 25.0113C29.4805 25.9027 29.0876 26.7844 28.3808 27.4911C27.5953 28.2766 26.6049 28.836 25.4369 29.1538C24.6128 29.3779 23.6895 29.4873 22.6184 29.4873ZM15.0092 11.9953H15.0061L14.9906 11.9954C14.4885 11.9991 13.9751 12.2379 13.5453 12.6676C12.1307 14.0823 11.9835 16.1091 11.9959 17.5105C12.0156 19.7406 13.2143 22.0602 15.5588 24.4046C17.9276 26.7735 20.2596 27.9846 22.4899 28.0044C23.8863 28.0167 25.9074 27.8682 27.3326 26.4429C27.7624 26.0131 28.0011 25.4998 28.0049 24.9973L28.005 24.9794C28.0061 24.4334 27.7033 23.9221 27.2148 23.6476L26.1708 23.0612C25.1414 22.5299 24.8457 22.6886 24.5953 22.937L22.3117 25.3073L21.8956 25.2029C21.7947 25.1777 19.4043 24.562 17.4758 22.6372L17.4748 22.6362C15.5546 20.7121 14.8898 18.2931 14.8624 18.191L14.7539 17.7861L17.0465 15.4098C17.2631 15.1927 17.4316 14.8908 16.9213 13.8194L16.3406 12.7854C16.0666 12.2979 15.5567 11.9953 15.0092 11.9953Z" fill="white"/>
</g>
<defs>
<clipPath id="clip0_1_4098">
<rect width="20" height="20" fill="white" transform="translate(10 10)"/>
</clipPath>
</defs>
</svg>
