<svg width="23" height="16" viewBox="0 0 23 16" fill="none" xmlns="http://www.w3.org/2000/svg">
<path d="M21.625 7.64687C21.625 11.2293 18.7415 14.1333 15.1846 14.1333C12.5258 14.1333 10.2433 12.5107 9.26013 10.1951C8.92798 9.41286 5.75391 7.50902 5.75391 6.6044C5.75391 5.69979 8.92798 5.88089 9.26013 5.09862C10.2433 2.783 12.5258 1.1604 15.1846 1.1604C18.7415 1.1604 21.625 4.06449 21.625 7.64687Z" fill="white"/>
<path fill-rule="evenodd" clip-rule="evenodd" d="M8.78809 7.2179C10.7318 8.34973 11.8809 10.1543 13.0744 10.9322C15.7905 12.7017 18.5351 10.8557 18.7314 7.98308C15.5879 9.03521 12.0772 7.72483 8.78809 7.2179Z" fill="#FFC90D"/>
<path d="M6.17934 6.778C6.75865 7.35508 7.3253 7.94172 7.87612 8.50923C9.2785 9.95671 10.5859 11.3053 11.6686 12.0897C12.9823 13.0398 14.2359 13.4096 15.3597 13.3682C16.1574 13.3363 16.9014 13.094 17.5598 12.705C18.2404 12.3033 18.8292 11.7421 19.2946 11.0885C20.0227 10.0683 20.4311 8.844 20.3867 7.67071C20.3804 7.52405 20.3709 7.3742 20.3519 7.22754C20.3678 7.3742 20.3804 7.52405 20.3867 7.6739C21.2573 7.44753 22.0804 6.88002 22.8686 6.33802C22.8939 6.48468 22.9161 6.63453 22.9351 6.78756C22.9667 7.04581 22.9889 7.2945 22.9952 7.52724C23.0269 8.39764 22.9003 9.28079 22.6312 10.1352C22.3558 11.012 21.9379 11.8505 21.4029 12.603C21.0642 13.078 20.6717 13.5276 20.2348 13.9293C19.8106 14.3214 19.3484 14.6722 18.8546 14.9623C18.3322 15.2716 17.7719 15.5202 17.1768 15.6988C16.6101 15.8678 16.015 15.9698 15.4009 15.9953C14.5398 16.0272 13.6376 15.906 12.7132 15.5999C11.8427 15.3098 10.9531 14.8571 10.0636 14.213C8.7815 13.2853 7.40444 11.8633 5.92608 10.3361L5.91975 10.3297C5.30878 9.70164 4.68199 9.05124 4.03936 8.41677C3.3904 7.77593 2.73195 7.15103 2.06717 6.58032L0.481178 5.21256C0.598307 5.16154 0.71227 5.11372 0.826233 5.06271L0.0126626 4.80127H0L0.478012 5.21256C0.595141 5.16154 0.709104 5.11372 0.823067 5.06271L6.17301 6.778H6.17617H6.17934ZM7.76532 6.14034L7.74 6.1531C7.35696 6.32845 6.95809 6.49424 6.54972 6.64728L6.54022 6.65047C6.95809 6.49424 7.36645 6.32526 7.76532 6.14353V6.14034Z" fill="#FFC90D"/>
<path fill-rule="evenodd" clip-rule="evenodd" d="M13.3427 5.02402C13.1812 5.10372 13.0198 5.19618 12.852 5.29502C12.6051 5.44487 12.3518 5.61385 12.0922 5.80833C11.8485 5.99325 11.5509 6.18455 11.2185 6.36628C10.5063 6.75844 9.63254 7.10596 8.77148 7.21755C10.9115 8.2091 11.8612 10.1539 13.0578 10.9319C14.6279 11.9553 16.0841 11.7672 17.1256 11.0212C16.0461 11.7863 14.5551 11.8979 13.0736 10.9319C11.8801 10.1539 10.9273 8.21229 8.78731 7.21755C12.0764 7.72448 15.5871 9.03486 18.7306 7.98273C18.7306 7.87433 18.7274 7.76593 18.7179 7.66072C18.6071 6.36947 17.8569 5.15155 16.6286 4.6765L13.3427 5.02721V5.02402ZM13.3427 5.02402C14.6406 4.37042 15.7549 4.33535 16.6286 4.67331L13.3427 5.02402ZM17.7334 10.4696C18.3476 9.78092 18.7148 8.87545 18.7306 7.98911C18.661 8.9711 18.2969 9.83193 17.7334 10.4696Z" fill="#FFB616"/>
<path fill-rule="evenodd" clip-rule="evenodd" d="M22.8686 6.34093C22.0804 6.87975 21.2573 7.44726 20.3868 7.67681C20.3456 6.62468 20.0291 5.59168 19.4624 4.74042C19.0509 4.12508 18.5064 3.60539 17.8416 3.25149C17.1705 2.89441 16.3632 2.69992 15.4325 2.73818C13.989 2.79238 12.2542 3.39178 10.2441 4.74679C8.96196 5.614 7.62923 6.2676 6.1762 6.77772L0.0158539 4.80099L2.59902 4.69897C2.98523 4.66709 3.36827 4.61926 3.75765 4.5555C4.15019 4.49173 4.53006 4.40883 4.90361 4.30681L5.255 4.19522L5.59689 4.07407C6.15404 3.87002 6.68903 3.62771 7.18604 3.37265C7.76219 3.07614 8.28452 2.7605 8.71821 2.46718C9.90533 1.66373 11.0386 1.08028 12.1118 0.678558C13.2514 0.254517 14.3119 0.0409033 15.2933 0.00583227C15.9865 -0.0196739 16.645 0.0409033 17.2623 0.174811C17.9017 0.315095 18.4937 0.538274 19.0382 0.825218L19.2725 0.955937L19.5099 1.09941C20.2412 1.55533 20.8458 2.1069 21.3333 2.74456C21.824 3.38221 22.2007 4.10276 22.4824 4.89664L22.4856 4.90302C22.5584 5.10069 22.6186 5.29199 22.6724 5.47372C22.723 5.65545 22.7737 5.84993 22.8148 6.05717C22.8338 6.14963 22.8528 6.24528 22.8686 6.33774V6.34093Z" fill="#FFB616"/>
</svg>
