<svg width="69" height="69" viewBox="0 0 69 69" fill="none" xmlns="http://www.w3.org/2000/svg">
<g clip-path="url(#clip0_1_204)">
<path d="M66.9999 0H1.99994C0.895369 0 -6.10352e-05 0.89543 -6.10352e-05 2V67C-6.10352e-05 68.1046 0.895369 69 1.99994 69H66.9999C68.1045 69 68.9999 68.1046 68.9999 67V2C68.9999 0.89543 68.1045 0 66.9999 0Z" fill="#403D3A"/>
<path d="M42.0625 38.3798C42.0625 38.0897 41.9473 37.8115 41.7421 37.6064C41.537 37.4013 41.2588 37.2861 40.9688 37.2861C40.6787 37.2861 40.4005 37.4013 40.1954 37.6064C39.9902 37.8115 39.875 38.0897 39.875 38.3798V52.2881L29.125 47.9881V27.0591L35.3945 29.5674C35.528 29.6207 35.6706 29.6472 35.8143 29.6453C35.9579 29.6434 36.0998 29.6133 36.2319 29.5566C36.3639 29.4999 36.4835 29.4178 36.5838 29.3149C36.684 29.212 36.7631 29.0903 36.8163 28.9569C36.8696 28.8234 36.8961 28.6808 36.8942 28.5371C36.8924 28.3934 36.8622 28.2515 36.8055 28.1195C36.7489 27.9875 36.6667 27.8679 36.5638 27.7676C36.4609 27.6673 36.3392 27.5883 36.2058 27.535L28.4972 24.4495L28.4376 24.4273C28.1777 24.3224 27.8872 24.3224 27.6273 24.4272L27.6159 24.4318L27.5925 24.4392L14.687 29.6023C14.4843 29.6836 14.3105 29.8238 14.1881 30.0046C14.0657 30.1855 14.0002 30.3989 14 30.6173V53.9048C14.0004 54.0836 14.0444 54.2596 14.1283 54.4175C14.2122 54.5754 14.3335 54.7103 14.4815 54.8106C14.6294 54.911 14.7997 54.9734 14.9775 54.9924C15.1552 55.0115 15.3349 54.9865 15.5007 54.9197L28.0312 49.9091L40.5027 54.8977H40.5092L40.5679 54.9238C40.826 55.027 41.114 55.027 41.3721 54.9238L41.392 54.9149L41.4733 55.0977V55.0912L41.4016 54.912L54.3143 49.7479C54.5166 49.6653 54.6898 49.5243 54.8118 49.3431C54.9339 49.1618 54.9994 48.9484 54.9999 48.7298V33.2048C54.9999 32.9147 54.8847 32.6365 54.6795 32.4314C54.4744 32.2263 54.1962 32.1111 53.9062 32.1111C53.6161 32.1111 53.3379 32.2263 53.1328 32.4314C52.9276 32.6365 52.8124 32.9147 52.8124 33.2048V47.9907L42.0625 52.2907V38.3798ZM26.9375 47.9881L16.1875 52.2881V31.3565L26.9375 27.0565V47.9881Z" fill="#E59456"/>
<path d="M46.1435 19.1738C45.4155 19.1739 44.7038 19.3899 44.0985 19.7945C43.4932 20.199 43.0215 20.774 42.743 21.4466C42.4644 22.1193 42.3916 22.8594 42.5337 23.5734C42.6758 24.2875 43.0264 24.9433 43.5412 25.4581C44.0561 25.9729 44.712 26.3234 45.4261 26.4654C46.1401 26.6074 46.8802 26.5345 47.5529 26.2559C48.2255 25.9772 48.8004 25.5054 49.2048 24.9001C49.6093 24.2947 49.8252 23.583 49.8252 22.855C49.8241 21.879 49.4358 20.9432 48.7456 20.2531C48.0554 19.563 47.1196 19.1748 46.1435 19.1738ZM46.1435 24.3486C45.848 24.3488 45.5591 24.2613 45.3134 24.0972C45.0676 23.9331 44.876 23.6998 44.7628 23.4269C44.6496 23.1539 44.62 22.8535 44.6775 22.5636C44.7351 22.2738 44.8774 22.0075 45.0863 21.7985C45.2952 21.5896 45.5614 21.4472 45.8513 21.3896C46.1411 21.3319 46.4415 21.3615 46.7145 21.4746C46.9875 21.5876 47.2209 21.7792 47.385 22.0249C47.5492 22.2706 47.6368 22.5595 47.6367 22.855C47.6363 23.2509 47.4789 23.6306 47.199 23.9106C46.9191 24.1906 46.5395 24.3481 46.1435 24.3486Z" fill="#F2F2F2"/>
<path d="M46.1436 13.9985C43.7955 14.0013 41.5445 14.9353 39.8842 16.5956C38.2239 18.2559 37.2899 20.507 37.2871 22.855C37.3777 24.2212 37.7628 25.5516 38.416 26.7549C39.1601 28.2476 40.0201 29.6796 40.9883 31.0376C42.332 32.9458 43.7816 34.7773 45.3301 36.5235C45.4326 36.6378 45.5581 36.7293 45.6984 36.7919C45.8387 36.8545 45.9906 36.8868 46.1443 36.8867C46.2979 36.8866 46.4498 36.8541 46.59 36.7914C46.7302 36.7286 46.8556 36.637 46.958 36.5225C48.5077 34.7777 49.9573 32.9464 51.2998 31.0376C52.2673 29.6791 53.1274 28.2472 53.8721 26.7549C54.5243 25.5512 54.9091 24.221 55 22.855C54.9972 20.507 54.0632 18.2559 52.4029 16.5956C50.7426 14.9353 48.4916 14.0013 46.1436 13.9985ZM52.1826 25.2168C51.7281 26.2182 51.2016 27.1854 50.6074 28.1108C49.3013 30.1496 47.8609 32.0992 46.2959 33.9467L46.1436 34.1289L45.9912 33.9467C44.4263 32.0994 42.986 30.1501 41.6797 28.1117C41.0859 27.1863 40.5595 26.2192 40.1045 25.2182C39.7418 24.4793 39.5281 23.6763 39.4756 22.8549C39.4745 21.9785 39.6462 21.1105 39.9809 20.3005C40.3155 19.4905 40.8065 18.7544 41.4258 18.1343C42.0452 17.5142 42.7807 17.0223 43.5902 16.6867C44.3998 16.351 45.2676 16.1783 46.144 16.1783C47.0204 16.1783 47.8883 16.351 48.6978 16.6867C49.5074 17.0223 50.2429 17.5142 50.8622 18.1343C51.4816 18.7544 51.9726 19.4905 52.3072 20.3005C52.6419 21.1105 52.8136 21.9785 52.8125 22.8549C52.7598 23.6759 52.5457 24.4785 52.1826 25.2168Z" fill="#F2F2F2"/>
</g>
<defs>
<clipPath id="clip0_1_204">
<rect width="69" height="69" fill="white"/>
</clipPath>
</defs>
</svg>
