<svg width="18" height="18" viewBox="0 0 18 18" fill="none" xmlns="http://www.w3.org/2000/svg">
<g opacity="0.7" clip-path="url(#clip0_1_386)">
<path d="M9 1.6875C10.4463 1.68748 11.8601 2.11633 13.0627 2.91984C14.2652 3.72335 15.2025 4.86541 15.756 6.20161C16.3095 7.53781 16.4543 9.00813 16.1721 10.4266C15.8899 11.8451 15.1935 13.1481 14.1708 14.1708C12.7994 15.5422 10.9394 16.3126 9 16.3126C7.06058 16.3126 5.2006 15.5422 3.82922 14.1708C2.45784 12.7994 1.68741 10.9394 1.68741 9C1.68741 7.06058 2.45784 5.2006 3.82922 3.82922C4.50672 3.14811 5.31256 2.60813 6.20012 2.2405C7.08767 1.87288 8.03932 1.68492 9 1.6875Z" fill="#E59456"/>
<path d="M12.497 9.93731H9C8.8042 9.93731 8.61641 9.85953 8.47796 9.72107C8.3395 9.58262 8.26172 9.39483 8.26172 9.19903V3.98584C8.26172 3.79004 8.3395 3.60225 8.47796 3.4638C8.61641 3.32534 8.8042 3.24756 9 3.24756C9.1958 3.24756 9.38359 3.32534 9.52204 3.4638C9.6605 3.60225 9.73828 3.79004 9.73828 3.98584V8.46167H12.497C12.6928 8.46167 12.8806 8.53945 13.019 8.67791C13.1575 8.81636 13.2353 9.00415 13.2353 9.19995C13.2353 9.39576 13.1575 9.58354 13.019 9.72199C12.8806 9.86045 12.6928 9.93731 12.497 9.93731Z" fill="#FCFCFC"/>
</g>
<defs>
<clipPath id="clip0_1_386">
<rect width="18" height="18" fill="white"/>
</clipPath>
</defs>
</svg>
