<svg width="34" height="34" viewBox="0 0 34 34" fill="none" xmlns="http://www.w3.org/2000/svg">
<g opacity="0.7">
<path d="M29.3384 15.5534V12.4732C29.3389 12.1329 29.2722 11.7959 29.1422 11.4815C29.0122 11.167 28.8215 10.8813 28.5809 10.6407C28.3403 10.4001 28.0546 10.2094 27.7401 10.0794C27.4257 9.94939 27.0887 9.88274 26.7484 9.88324H25.0637L11.2969 4.15019C11.0628 4.05132 10.8113 4.00026 10.5572 4C10.3031 3.99975 10.0515 4.0503 9.81721 4.1487C9.58293 4.2471 9.37069 4.39135 9.19297 4.57297C9.01525 4.75459 8.87565 4.96991 8.78236 5.20628L6.90906 9.88324H5.52609C5.18584 9.88274 4.84883 9.94939 4.53438 10.0794C4.21993 10.2094 3.93422 10.4001 3.69363 10.6407C3.45303 10.8813 3.26228 11.167 3.1323 11.4815C3.00232 11.7959 2.93566 12.1329 2.93616 12.4732V27.4093C2.93566 27.7495 3.00232 28.0865 3.1323 28.401C3.26228 28.7154 3.45303 29.0011 3.69363 29.2417C3.93422 29.4823 4.21993 29.6731 4.53438 29.8031C4.84883 29.933 5.18584 29.9997 5.52609 29.9992H26.7484C27.0887 29.9997 27.4257 29.933 27.7401 29.8031C28.0546 29.6731 28.3403 29.4823 28.5809 29.2417C28.8215 29.0011 29.0122 28.7154 29.1422 28.401C29.2722 28.0865 29.3389 27.7495 29.3384 27.4093V24.329C29.6746 24.3173 29.9933 24.176 30.2276 23.9346C30.462 23.6932 30.5939 23.3705 30.5956 23.034V16.8484C30.5939 16.512 30.462 16.1892 30.2276 15.9478C29.9933 15.7065 29.6746 15.5651 29.3384 15.5534ZM9.9516 5.67146C9.98176 5.58958 10.0286 5.51488 10.0892 5.45211C10.1499 5.38934 10.2229 5.33987 10.3036 5.30686C10.4654 5.24411 10.6448 5.24411 10.8065 5.30686L21.7949 9.88324H18.7523L11.3094 7.40646C11.1559 7.35301 10.9876 7.36113 10.8399 7.42911C10.6922 7.49709 10.5766 7.61966 10.5174 7.77106L9.70015 9.88324H8.26689L9.9516 5.67146ZM14.7794 9.88324H11.058L11.4729 8.78943L14.7794 9.88324ZM28.0811 27.4093C28.0808 27.7626 27.9403 28.1014 27.6904 28.3513C27.4406 28.6011 27.1018 28.7416 26.7484 28.742H5.52609C5.17274 28.7416 4.83396 28.6011 4.58411 28.3513C4.33425 28.1014 4.19374 27.7626 4.19341 27.4093V12.4732C4.19571 12.1204 4.33686 11.7828 4.58629 11.5334C4.83572 11.2839 5.17335 11.1428 5.52609 11.1405H26.7484C27.1012 11.1428 27.4388 11.2839 27.6882 11.5334C27.9377 11.7828 28.0788 12.1204 28.0811 12.4732V15.5409H22.4235C21.2564 15.5409 20.1372 16.0045 19.312 16.8297C18.4867 17.6549 18.0231 18.7742 18.0231 19.9412C18.0231 21.1083 18.4867 22.2275 19.312 23.0527C20.1372 23.878 21.2564 24.3416 22.4235 24.3416H28.0811V27.4093ZM29.3384 23.034C29.3375 23.0471 29.3319 23.0594 29.3226 23.0686C29.3134 23.0779 29.3011 23.0835 29.2881 23.0843H22.4235C21.5899 23.0843 20.7904 22.7532 20.201 22.1637C19.6115 21.5743 19.2804 20.7748 19.2804 19.9412C19.2804 19.1076 19.6115 18.3081 20.201 17.7187C20.7904 17.1292 21.5899 16.7981 22.4235 16.7981L29.3384 16.8484V23.034Z" fill="#E59456"/>
<path d="M22.4235 18.0554C22.0505 18.0554 21.6859 18.166 21.3757 18.3732C21.0656 18.5804 20.8239 18.8749 20.6812 19.2195C20.5384 19.5641 20.5011 19.9433 20.5738 20.3091C20.6466 20.675 20.8262 21.011 21.09 21.2747C21.3537 21.5385 21.6897 21.7181 22.0556 21.7909C22.4214 21.8636 22.8006 21.8263 23.1452 21.6835C23.4898 21.5408 23.7843 21.2991 23.9915 20.989C24.1987 20.6788 24.3093 20.3142 24.3093 19.9412C24.3093 19.4411 24.1107 18.9614 23.757 18.6077C23.4033 18.254 22.9236 18.0554 22.4235 18.0554ZM22.4235 20.5699C22.2991 20.5699 22.1776 20.533 22.0742 20.4639C21.9708 20.3948 21.8903 20.2967 21.8427 20.1818C21.7951 20.0669 21.7827 19.9405 21.8069 19.8186C21.8312 19.6967 21.8911 19.5846 21.979 19.4967C22.0669 19.4088 22.1789 19.3489 22.3008 19.3247C22.4228 19.3004 22.5492 19.3129 22.664 19.3605C22.7789 19.408 22.8771 19.4886 22.9462 19.592C23.0152 19.6954 23.0521 19.8169 23.0521 19.9412C23.0521 20.108 22.9859 20.2678 22.868 20.3857C22.7501 20.5036 22.5902 20.5699 22.4235 20.5699Z" fill="#E59456"/>
<path d="M10.4796 14.2837C10.4796 14.4504 10.4134 14.6103 10.2955 14.7282C10.1776 14.846 10.0177 14.9123 9.851 14.9123H7.33651C7.16979 14.9123 7.0099 14.846 6.89201 14.7282C6.77412 14.6103 6.70789 14.4504 6.70789 14.2837C6.70789 14.1169 6.77412 13.957 6.89201 13.8391C7.0099 13.7213 7.16979 13.655 7.33651 13.655H9.851C10.0177 13.655 10.1776 13.7213 10.2955 13.8391C10.4134 13.957 10.4796 14.1169 10.4796 14.2837Z" fill="#E59456"/>
<path d="M12.9941 16.7981C12.9941 16.9648 12.9279 17.1247 12.81 17.2426C12.6921 17.3605 12.5322 17.4267 12.3655 17.4267H7.33651C7.16979 17.4267 7.0099 17.3605 6.89201 17.2426C6.77412 17.1247 6.70789 16.9648 6.70789 16.7981C6.70789 16.6314 6.77412 16.4715 6.89201 16.3536C7.0099 16.2357 7.16979 16.1695 7.33651 16.1695H12.3655C12.5322 16.1695 12.6921 16.2357 12.81 16.3536C12.9279 16.4715 12.9941 16.6314 12.9941 16.7981Z" fill="#E59456"/>
</g>
</svg>
