<svg width="34" height="34" viewBox="0 0 34 34" fill="none" xmlns="http://www.w3.org/2000/svg">
<g opacity="0.7">
<path d="M28.4368 10.8181C28.1548 10.3128 27.6213 9.99976 27.0427 10H22.3333C21.4497 10 20.7333 10.7163 20.7333 11.6V19.6H19.6667V8.93334H23.4C23.9891 8.93334 24.4667 8.45577 24.4667 7.86667V6.8C24.4667 6.2109 23.9891 5.73334 23.4 5.73334H19.1333C17.6613 5.7351 16.4684 6.92798 16.4667 8.4V10.9712C15.9954 10.2609 15.2663 9.76192 14.4336 9.57974C13.893 8.72821 12.9542 8.21262 11.9456 8.21334C11.6181 7.86987 10.8555 7.33334 9.2944 7.33334C7.8272 7.33334 7.10773 7.86667 6.79093 8.21494C5.8285 8.23428 4.94585 8.75424 4.4624 9.58667C3.24757 9.89912 2.33003 10.8967 2.12 12.1333H2.06667C1.47756 12.1333 1 12.6109 1 13.2V19.6C1 20.1891 1.47756 20.6667 2.06667 20.6667H2.6V21.7333C2.60093 22.1709 2.86903 22.5636 3.27627 22.7237C2.19894 23.7123 1.79882 25.2392 2.25295 26.6291C2.70708 28.0189 3.93163 29.015 5.38479 29.1767C6.83795 29.3383 8.2515 28.6357 9 27.3797C9.66535 28.4986 10.8668 29.1886 12.1684 29.1995C13.4701 29.2104 14.6829 28.5406 15.3669 27.4331C15.536 27.5414 15.7325 27.5993 15.9333 27.6H20.3408C21.0994 28.6924 22.3829 29.2974 23.7083 29.1874C25.0336 29.0774 26.1998 28.2691 26.768 27.0667H31.4C32.2837 27.0667 33 26.3503 33 25.4667V19.904C32.9977 19.2632 32.8325 18.6335 32.52 18.0741L28.4368 10.8181ZM27.5061 11.3392L31.2555 18H26.0667C25.7721 18 25.5333 17.7612 25.5333 17.4667V11.0667L27.0427 11.0667C27.2354 11.0664 27.413 11.1708 27.5067 11.3392H27.5061ZM4.93387 10.5717C5.1174 10.533 5.26833 10.403 5.33387 10.2272C5.37013 10.1296 5.72747 9.27254 7.06293 9.27254C7.25469 9.26592 7.43009 9.16277 7.52907 8.9984C7.54453 8.97387 7.90773 8.4 9.2944 8.4C10.7979 8.4 11.2144 8.99574 11.2171 8.99574C11.3107 9.16648 11.49 9.27259 11.6848 9.27254C13.1739 9.27254 13.5621 10.1995 13.5749 10.2325C13.6398 10.4103 13.7941 10.5404 13.9803 10.5744C14.86 10.6694 15.5961 11.2845 15.8459 12.1333H3.21387C3.41771 11.3123 4.09702 10.6956 4.93387 10.5717ZM2.06667 15.3333H14.8667C15.1612 15.3333 15.4 15.0946 15.4 14.8C15.4 14.5055 15.1612 14.2667 14.8667 14.2667H2.06667V13.2H17C17.2946 13.2 17.5333 12.9612 17.5333 12.6667V8.4C17.5333 7.51635 18.2497 6.8 19.1333 6.8H23.4V7.86667H19.6667C19.0776 7.86667 18.6 8.34423 18.6 8.93334V19.6H2.06667V15.3333ZM3.66667 21.7333V20.6667H14.8667V22.8592C14.1663 22.1392 13.2045 21.7331 12.2 21.7333H3.66667ZM9.59253 22.8C9.36366 23.0249 9.16452 23.2781 9 23.5536C8.83548 23.2781 8.63634 23.0249 8.40747 22.8H9.59253ZM5.8 28.1333C4.32724 28.1333 3.13333 26.9394 3.13333 25.4667C3.13333 23.9939 4.32724 22.8 5.8 22.8C7.27276 22.8 8.46667 23.9939 8.46667 25.4667C8.4649 26.9387 7.27203 28.1316 5.8 28.1333ZM12.2 28.1333C10.7272 28.1333 9.53333 26.9394 9.53333 25.4667C9.53333 23.9939 10.7272 22.8 12.2 22.8C13.6728 22.8 14.8667 23.9939 14.8667 25.4667C14.8649 26.9387 13.672 28.1316 12.2 28.1333ZM15.9333 26.5333V20.6667H20.7333V22.8592C19.783 23.8265 19.4354 25.2349 19.8267 26.5333H15.9333ZM23.4 28.1333C21.9272 28.1333 20.7333 26.9394 20.7333 25.4667C20.7333 23.9939 21.9272 22.8 23.4 22.8C24.8728 22.8 26.0667 23.9939 26.0667 25.4667C26.0649 26.9387 24.872 28.1316 23.4 28.1333ZM31.4 26H27.0907C27.2551 24.9269 26.9406 23.8357 26.2304 23.0146C25.5202 22.1935 24.4856 21.7252 23.4 21.7333C22.8461 21.7341 22.2994 21.859 21.8 22.0987V11.6C21.8 11.3055 22.0388 11.0667 22.3333 11.0667H24.4667V17.4667C24.4667 18.3503 25.183 19.0667 26.0667 19.0667H31.7915C31.8832 19.3364 31.9311 19.6191 31.9333 19.904V20.1333H31.4C31.1054 20.1333 30.8667 20.3721 30.8667 20.6667C30.8667 20.9612 31.1054 21.2 31.4 21.2H31.9333V22.2667H31.4C31.1054 22.2667 30.8667 22.5055 30.8667 22.8C30.8667 23.0946 31.1054 23.3333 31.4 23.3333H31.9333V25.4667C31.9333 25.7612 31.6946 26 31.4 26Z" fill="#E59456"/>
<path d="M23.4 23.8667C22.5164 23.8667 21.8 24.583 21.8 25.4667C21.8 26.3504 22.5164 27.0667 23.4 27.0667C24.2837 27.0667 25 26.3504 25 25.4667C25 24.583 24.2837 23.8667 23.4 23.8667ZM23.4 26C23.1055 26 22.8667 25.7613 22.8667 25.4667C22.8667 25.1721 23.1055 24.9334 23.4 24.9334C23.6946 24.9334 23.9334 25.1721 23.9334 25.4667C23.9334 25.7613 23.6946 26 23.4 26Z" fill="#E59456"/>
<path d="M12.2 23.8667C11.3163 23.8667 10.6 24.583 10.6 25.4667C10.6 26.3504 11.3163 27.0667 12.2 27.0667C13.0836 27.0667 13.8 26.3504 13.8 25.4667C13.8 24.583 13.0836 23.8667 12.2 23.8667ZM12.2 26C11.9054 26 11.6666 25.7613 11.6666 25.4667C11.6666 25.1721 11.9054 24.9334 12.2 24.9334C12.4945 24.9334 12.7333 25.1721 12.7333 25.4667C12.7333 25.7613 12.4945 26 12.2 26Z" fill="#E59456"/>
<path d="M5.79995 23.8667C4.9163 23.8667 4.19995 24.583 4.19995 25.4667C4.19995 26.3504 4.9163 27.0667 5.79995 27.0667C6.68361 27.0667 7.39995 26.3504 7.39995 25.4667C7.39995 24.583 6.68361 23.8667 5.79995 23.8667ZM5.79995 26C5.5054 26 5.26662 25.7613 5.26662 25.4667C5.26662 25.1721 5.5054 24.9334 5.79995 24.9334C6.0945 24.9334 6.33328 25.1721 6.33328 25.4667C6.33328 25.7613 6.0945 26 5.79995 26Z" fill="#E59456"/>
</g>
</svg>
