<svg width="34" height="34" viewBox="0 0 34 34" fill="none" xmlns="http://www.w3.org/2000/svg">
<g opacity="0.7">
<path d="M7.12398 13.0096L4.05192 28.7286C3.97939 29.0672 3.98289 29.4176 4.06215 29.7546C4.14142 30.0916 4.29448 30.4068 4.5103 30.6775C4.73464 30.9411 5.01461 31.1517 5.33007 31.2941C5.64553 31.4365 5.98864 31.5072 6.33471 31.5012H27.1035C27.4504 31.5126 27.7952 31.4443 28.1114 31.3013C28.4277 31.1584 28.7068 30.9448 28.9274 30.6768C29.148 30.4089 29.3041 30.0939 29.3836 29.7562C29.4632 29.4184 29.4641 29.0668 29.3863 28.7286L26.3142 13.0096C26.1607 12.3086 25.7761 11.6795 25.2221 11.2234C24.6681 10.7673 23.9768 10.5106 23.2594 10.4946H16.6989C16.0469 10.4896 15.4134 10.2772 14.8901 9.88816C14.3669 9.49916 13.981 8.95374 13.7883 8.33085C13.5956 7.70795 13.6061 7.0399 13.8184 6.42339C14.0306 5.80688 14.4335 5.27389 14.9688 4.90158C15.504 4.52927 16.1439 4.33696 16.7957 4.35246C17.4475 4.36797 18.0775 4.59051 18.5945 4.98785C19.1114 5.3852 19.4885 5.93674 19.6712 6.56264C19.8539 7.18855 19.8326 7.85635 19.6105 8.46938C19.5802 8.55196 19.5665 8.63971 19.5701 8.72761C19.5738 8.81551 19.5948 8.90182 19.6318 8.9816C19.6689 9.06138 19.7213 9.13306 19.7862 9.19254C19.851 9.25202 19.9269 9.29812 20.0096 9.32821C20.0922 9.35829 20.18 9.37177 20.2679 9.36787C20.3558 9.36397 20.4421 9.34276 20.5217 9.30547C20.6014 9.26817 20.6729 9.21552 20.7322 9.15054C20.7915 9.08555 20.8374 9.0095 20.8673 8.92675C21.0435 8.44419 21.1333 7.93432 21.1324 7.42057C21.1333 6.84037 21.0198 6.26569 20.7984 5.72941C20.5769 5.19312 20.252 4.70574 19.842 4.29517C19.4321 3.88459 18.9452 3.55887 18.4092 3.33663C17.8733 3.11439 17.2988 3 16.7186 3C16.1384 3 15.5639 3.11439 15.0279 3.33663C14.492 3.55887 14.0051 3.88459 13.5952 4.29517C13.1852 4.70574 12.8602 5.19312 12.6388 5.72941C12.4174 6.26569 12.3039 6.84037 12.3048 7.42057C12.3025 8.38098 12.6167 9.31539 13.1988 10.0793L13.5135 10.4946H10.1793C9.46186 10.5107 8.77058 10.7674 8.2165 11.2235C7.66241 11.6796 7.27764 12.3086 7.12398 13.0096ZM23.2594 11.8333C23.6659 11.8509 24.0557 12.0003 24.3697 12.2591C24.6837 12.5179 24.9049 12.872 24.9998 13.2677L28.0718 28.9867C28.1066 29.1308 28.1089 29.2808 28.0784 29.4259C28.048 29.571 27.9856 29.7075 27.8958 29.8255L27.8947 29.8276C27.7962 29.9389 27.674 30.0269 27.5371 30.085C27.4002 30.1431 27.252 30.1699 27.1035 30.1635H6.33471C6.18565 30.175 6.03602 30.1504 5.89848 30.0918C5.76094 30.0332 5.63953 29.9423 5.54454 29.8269C5.44954 29.7115 5.38375 29.5748 5.35274 29.4286C5.32172 29.2823 5.32639 29.1308 5.36635 28.9867L8.43841 13.2677C8.53348 12.872 8.75478 12.518 9.06887 12.2592C9.38296 12.0004 9.77276 11.8509 10.1793 11.8333H23.2594Z" fill="#E59456"/>
<path d="M19.1066 18.5178C19.1163 18.6919 19.1936 18.8554 19.322 18.9734C19.4504 19.0914 19.6198 19.1547 19.7942 19.1497C19.9685 19.1446 20.134 19.0718 20.2554 18.9466C20.3768 18.8214 20.4446 18.6537 20.4443 18.4793V17.6041C20.4441 17.4267 20.3736 17.2566 20.2482 17.1311C20.1228 17.0056 19.9528 16.935 19.7754 16.9347H13.6627C13.4852 16.9349 13.3151 17.0055 13.1896 17.131C13.0641 17.2565 12.9935 17.4266 12.9933 17.6041V18.4793C12.993 18.6537 13.0608 18.8214 13.1822 18.9466C13.3036 19.0718 13.4691 19.1446 13.6435 19.1497C13.8178 19.1547 13.9872 19.0914 14.1156 18.9734C14.2441 18.8554 14.3213 18.6919 14.331 18.5178L14.3447 18.2739H16.0487V23.7229H15.7896C15.7008 23.7197 15.6122 23.7343 15.5291 23.7658C15.4459 23.7973 15.3698 23.845 15.3053 23.9062C15.2408 23.9674 15.1891 24.0408 15.1533 24.1222C15.1175 24.2035 15.0982 24.2912 15.0966 24.3801C15.0951 24.469 15.1112 24.5573 15.1441 24.6399C15.177 24.7225 15.2261 24.7977 15.2884 24.8612C15.3507 24.9246 15.425 24.975 15.507 25.0094C15.5889 25.0438 15.677 25.0616 15.7659 25.0616H17.6697C17.8472 25.0616 18.0175 24.9911 18.143 24.8655C18.2686 24.74 18.3391 24.5698 18.3391 24.3922C18.3391 24.2147 18.2686 24.0444 18.143 23.9189C18.0175 23.7934 17.8472 23.7229 17.6697 23.7229H17.4107L17.3879 23.4638V18.2739H19.0929L19.1066 18.5178Z" fill="#E59456"/>
</g>
</svg>
